<?xml version="1.0" encoding="UTF-8"?>
<svg xmlns="http://www.w3.org/2000/svg" width="256" height="256" viewBox="0 0 256 256">
  <!-- Sheriff star scaled and positioned -->
  <g transform="translate(128, 128) scale(10) translate(-12, -12)">
    <path d="M21.5,15.5c-.319,0-.615,.1-.858,.271l-2.289-3.771,2.289-3.771c.243,.17,.539,.271,.858,.271,.827,0,1.5-.673,1.5-1.5s-.673-1.5-1.5-1.5-1.5,.673-1.5,1.5h-4.683l-2.555-4.208c.442-.261,.738-.742,.738-1.292,0-.827-.673-1.5-1.5-1.5s-1.5,.673-1.5,1.5c0,.549,.297,1.03,.738,1.292l-2.555,4.208H4c0-.827-.673-1.5-1.5-1.5s-1.5,.673-1.5,1.5,.673,1.5,1.5,1.5c.319,0,.615-.1,.858-.271l2.289,3.771-2.289,3.771c-.243-.17-.539-.271-.858-.271-.827,0-1.5,.673-1.5,1.5s.673,1.5,1.5,1.5,1.5-.673,1.5-1.5h4.683l2.555,4.209c-.441,.261-.738,.742-.738,1.291,0,.827,.673,1.5,1.5,1.5s1.5-.673,1.5-1.5c0-.549-.297-1.03-.738-1.291l2.555-4.209h4.683c0,.827,.673,1.5,1.5,1.5s1.5-.673,1.5-1.5-.673-1.5-1.5-1.5Zm0-9c.276,0,.5,.224,.5,.5s-.224,.5-.5,.5-.5-.224-.5-.5,.224-.5,.5-.5ZM12,1c.276,0,.5,.224,.5,.5s-.224,.5-.5,.5-.5-.224-.5-.5,.224-.5,.5-.5ZM2.5,7.5c-.276,0-.5-.224-.5-.5s.224-.5,.5-.5,.5,.224,.5,.5-.224,.5-.5,.5Zm0,10c-.276,0-.5-.225-.5-.5s.224-.5,.5-.5,.5,.225,.5,.5-.224,.5-.5,.5Zm9.5,5.5c-.276,0-.5-.225-.5-.5s.224-.5,.5-.5,.5,.225,.5,.5-.224,.5-.5,.5Zm2.754-7l-2.754,4.537-2.754-4.537H4.388l2.428-4-2.429-4h4.857l2.754-4.537,2.754,4.537h4.857l-2.429,4,2.428,4h-4.857Zm6.746,1.5c-.276,0-.5-.225-.5-.5s.224-.5,.5-.5,.5,.225,.5,.5-.224,.5-.5,.5Z"
          fill="#FFD700"/>
  </g>
</svg>
